<?xml version="1.0" standalone="no"?>
<!DOCTYPE svg PUBLIC "-//W3C//DTD SVG 20010904//EN"
 "http://www.w3.org/TR/2001/REC-SVG-20010904/DTD/svg10.dtd">
<svg version="1.0" xmlns="http://www.w3.org/2000/svg"
 width="600.000000pt" height="600.000000pt" viewBox="0 0 600.000000 600.000000"
 preserveAspectRatio="xMidYMid meet">
<metadata>
Created by potrace 1.11, written by Peter Selinger 2001-2013
</metadata>
<g transform="translate(0.000000,600.000000) scale(0.100000,-0.100000)"
fill="#000000" stroke="none">
<path d="M770 5980 c-246 -53 -444 -183 -589 -385 -87 -122 -137 -237 -166
-385 -22 -114 -22 -4320 1 -4425 43 -203 130 -364 273 -505 140 -138 286 -217
481 -260 81 -18 179 -18 2225 -19 1406 0 2159 3 2195 10 143 27 297 90 405
167 114 81 254 245 308 362 24 52 58 142 63 165 2 11 10 49 18 85 12 55 14
384 13 2240 l-2 2175 -28 88 c-115 364 -378 610 -735 687 -84 18 -172 18
-2232 19 -2044 0 -2149 -1 -2230 -19z"/>
</g>
</svg>
